<svg width="307" height="110" viewBox="0 0 307 110" fill="none" xmlns="http://www.w3.org/2000/svg">
<path d="M17.29 78.775V62.71L68.59 2.49999H87.49V59.875H101.935V78.775H87.49V97H68.59V78.775H17.29ZM42.535 59.875H68.59V28.825L42.535 59.875ZM112.541 49.885C112.541 21.535 131.981 0.474995 158.306 0.474995C184.631 0.474995 203.936 20.32 203.936 49.885C203.936 79.045 184.631 99.025 158.306 99.025C132.116 99.025 112.541 77.965 112.541 49.885ZM131.441 49.885C131.441 68.11 142.646 80.935 158.441 80.935C174.236 80.935 185.036 68.11 185.036 49.885C185.036 31.255 174.236 18.565 158.441 18.565C142.511 18.565 131.441 31.255 131.441 49.885ZM215.835 78.775V62.71L267.135 2.49999H286.035V59.875H300.48V78.775H286.035V97H267.135V78.775H215.835ZM241.08 59.875H267.135V28.825L241.08 59.875Z" fill="#262626"/>
<mask id="path-2-outside-1_2001_2" maskUnits="userSpaceOnUse" x="5" y="8" width="288" height="104" fill="black">
<rect fill="white" x="5" y="8" width="288" height="104"/>
<path d="M7.29 88.775V72.71L58.59 12.5H77.49V69.875H91.935V88.775H77.49V107H58.59V88.775H7.29ZM32.535 69.875H58.59V38.825L32.535 69.875ZM102.541 59.885C102.541 31.535 121.981 10.475 148.306 10.475C174.631 10.475 193.936 30.32 193.936 59.885C193.936 89.045 174.631 109.025 148.306 109.025C122.116 109.025 102.541 87.965 102.541 59.885ZM121.441 59.885C121.441 78.11 132.646 90.935 148.441 90.935C164.236 90.935 175.036 78.11 175.036 59.885C175.036 41.255 164.236 28.565 148.441 28.565C132.511 28.565 121.441 41.255 121.441 59.885ZM205.835 88.775V72.71L257.135 12.5H276.035V69.875H290.48V88.775H276.035V107H257.135V88.775H205.835ZM231.08 69.875H257.135V38.825L231.08 69.875Z"/>
</mask>
<path d="M7.29 88.775H6.29V89.775H7.29V88.775ZM7.29 72.71L6.52882 72.0615L6.29 72.3418V72.71H7.29ZM58.59 12.5V11.5H58.1283L57.8288 11.8515L58.59 12.5ZM77.49 12.5H78.49V11.5H77.49V12.5ZM77.49 69.875H76.49V70.875H77.49V69.875ZM91.935 69.875H92.935V68.875H91.935V69.875ZM91.935 88.775V89.775H92.935V88.775H91.935ZM77.49 88.775V87.775H76.49V88.775H77.49ZM77.49 107V108H78.49V107H77.49ZM58.59 107H57.59V108H58.59V107ZM58.59 88.775H59.59V87.775H58.59V88.775ZM32.535 69.875L31.769 69.2322L30.3904 70.875H32.535V69.875ZM58.59 69.875V70.875H59.59V69.875H58.59ZM58.59 38.825H59.59V36.0776L57.824 38.1822L58.59 38.825ZM8.29 88.775V82.7506H6.29V88.775H8.29ZM8.29 78.7344V72.71H6.29V78.7344H8.29ZM8.05118 73.3585L17.6699 62.0692L16.1476 60.7721L6.52882 72.0615L8.05118 73.3585ZM24.0824 54.5429L43.3199 31.9642L41.7976 30.6671L22.5601 53.2458L24.0824 54.5429ZM49.7324 24.4379L59.3512 13.1485L57.8288 11.8515L48.2101 23.1408L49.7324 24.4379ZM58.59 13.5H65.6775V11.5H58.59V13.5ZM70.4025 13.5H77.49V11.5H70.4025V13.5ZM76.49 12.5V34.0156H78.49V12.5H76.49ZM76.49 48.3594V69.875H78.49V48.3594H76.49ZM77.49 70.875H82.9069V68.875H77.49V70.875ZM86.5181 70.875H91.935V68.875H86.5181V70.875ZM90.935 69.875V76.9625H92.935V69.875H90.935ZM90.935 81.6875V88.775H92.935V81.6875H90.935ZM91.935 87.775H86.5181V89.775H91.935V87.775ZM82.9069 87.775H77.49V89.775H82.9069V87.775ZM76.49 88.775V95.6094H78.49V88.775H76.49ZM76.49 100.166V107H78.49V100.166H76.49ZM77.49 106H70.4025V108H77.49V106ZM65.6775 106H58.59V108H65.6775V106ZM59.59 107V100.166H57.59V107H59.59ZM59.59 95.6094V88.775H57.59V95.6094H59.59ZM58.59 87.775H39.3525V89.775H58.59V87.775ZM26.5275 87.775H7.29V89.775H26.5275V87.775ZM33.301 70.5178L43.0717 58.8741L41.5396 57.5884L31.769 69.2322L33.301 70.5178ZM49.5854 51.1115L59.356 39.4678L57.824 38.1822L48.0533 49.8259L49.5854 51.1115ZM57.59 38.825V50.4688H59.59V38.825H57.59ZM57.59 58.2313V69.875H59.59V58.2313H57.59ZM58.59 68.875H48.8194V70.875H58.59V68.875ZM42.3056 68.875H32.535V70.875H42.3056V68.875ZM7.29 88.775H5.29V90.775H7.29V88.775ZM7.29 72.71L5.76764 71.4129L5.29 71.9735V72.71H7.29ZM58.59 12.5V10.5H57.6665L57.0676 11.2029L58.59 12.5ZM77.49 12.5H79.49V10.5H77.49V12.5ZM77.49 69.875H75.49V71.875H77.49V69.875ZM91.935 69.875H93.935V67.875H91.935V69.875ZM91.935 88.775V90.775H93.935V88.775H91.935ZM77.49 88.775V86.775H75.49V88.775H77.49ZM77.49 107V109H79.49V107H77.49ZM58.59 107H56.59V109H58.59V107ZM58.59 88.775H60.59V86.775H58.59V88.775ZM32.535 69.875L31.0029 68.5894L28.2459 71.875H32.535V69.875ZM58.59 69.875V71.875H60.59V69.875H58.59ZM58.59 38.825H60.59V33.3302L57.0579 37.5394L58.59 38.825ZM9.29 88.775V82.7506H5.29V88.775H9.29ZM9.29 78.7344V72.71H5.29V78.7344H9.29ZM8.81236 74.0071L18.4311 62.7177L15.3864 60.1235L5.76764 71.4129L8.81236 74.0071ZM24.8436 55.1915L44.0811 32.6127L41.0364 30.0185L21.7989 52.5973L24.8436 55.1915ZM50.4936 25.0864L60.1124 13.7971L57.0676 11.2029L47.4489 22.4923L50.4936 25.0864ZM58.59 14.5H65.6775V10.5H58.59V14.5ZM70.4025 14.5H77.49V10.5H70.4025V14.5ZM75.49 12.5V34.0156H79.49V12.5H75.49ZM75.49 48.3594V69.875H79.49V48.3594H75.49ZM77.49 71.875H82.9069V67.875H77.49V71.875ZM86.5181 71.875H91.935V67.875H86.5181V71.875ZM89.935 69.875V76.9625H93.935V69.875H89.935ZM89.935 81.6875V88.775H93.935V81.6875H89.935ZM91.935 86.775H86.5181V90.775H91.935V86.775ZM82.9069 86.775H77.49V90.775H82.9069V86.775ZM75.49 88.775V95.6094H79.49V88.775H75.49ZM75.49 100.166V107H79.49V100.166H75.49ZM77.49 105H70.4025V109H77.49V105ZM65.6775 105H58.59V109H65.6775V105ZM60.59 107V100.166H56.59V107H60.59ZM60.59 95.6094V88.775H56.59V95.6094H60.59ZM58.59 86.775H39.3525V90.775H58.59V86.775ZM26.5275 86.775H7.29V90.775H26.5275V86.775ZM34.0671 71.1606L43.8377 59.5169L40.7736 56.9456L31.0029 68.5894L34.0671 71.1606ZM50.3514 51.7544L60.1221 40.1106L57.0579 37.5394L47.2873 49.1831L50.3514 51.7544ZM56.59 38.825V50.4688H60.59V38.825H56.59ZM56.59 58.2313V69.875H60.59V58.2313H56.59ZM58.59 67.875H48.8194V71.875H58.59V67.875ZM42.3056 67.875H32.535V71.875H42.3056V67.875ZM103.541 59.885C103.541 55.0634 104.112 50.462 105.189 46.1497L103.249 45.6652C102.131 50.1408 101.541 54.9051 101.541 59.885H103.541ZM108.212 37.4493C112.167 28.7472 118.445 21.744 126.311 17.2137L125.313 15.4806C117.066 20.2297 110.511 27.5585 106.391 36.6217L108.212 37.4493ZM134.709 13.527C138.95 12.189 143.508 11.475 148.306 11.475V9.475C143.308 9.475 138.547 10.219 134.107 11.6196L134.709 13.527ZM148.306 11.475C153.132 11.475 157.71 12.155 161.962 13.4459L162.543 11.5322C158.095 10.1818 153.321 9.475 148.306 9.475V11.475ZM170.418 17.0489C178.316 21.4951 184.58 28.4465 188.477 37.3273L190.308 36.5237C186.245 27.2634 179.691 19.9741 171.4 15.3061L170.418 17.0489ZM191.387 46.088C192.399 50.3781 192.936 54.9924 192.936 59.885H194.936C194.936 54.8461 194.383 50.0772 193.334 45.6286L191.387 46.088ZM192.936 59.885C192.936 64.7481 192.391 69.3442 191.363 73.623L193.307 74.0903C194.374 69.651 194.936 64.8977 194.936 59.885H192.936ZM188.421 82.3364C184.508 91.127 178.238 98.0449 170.341 102.475L171.32 104.22C179.608 99.5696 186.167 92.3174 190.248 83.1497L188.421 82.3364ZM161.912 106.059C157.674 107.346 153.113 108.025 148.306 108.025V110.025C153.303 110.025 158.059 109.319 162.493 107.973L161.912 106.059ZM148.306 108.025C143.534 108.025 138.993 107.311 134.761 105.975L134.159 107.882C138.588 109.281 143.333 110.025 148.306 110.025V108.025ZM126.39 102.306C118.536 97.7974 112.245 90.8373 108.268 82.2123L106.451 83.0499C110.595 92.0344 117.164 99.316 125.395 104.04L126.39 102.306ZM105.214 73.5603C104.122 69.2632 103.541 64.681 103.541 59.885H101.541C101.541 64.8427 102.141 69.5905 103.275 74.0529L105.214 73.5603ZM122.441 59.885C122.441 53.6113 123.723 48.062 126.012 43.49L124.224 42.5946C121.779 47.4788 120.441 53.3412 120.441 59.885H122.441ZM132.909 34.819C137.107 31.4551 142.395 29.565 148.441 29.565V27.565C141.961 27.565 136.227 29.5974 131.659 33.2584L132.909 34.819ZM148.441 29.565C154.458 29.565 159.69 31.4704 163.825 34.8597L165.093 33.3128C160.584 29.6176 154.899 27.565 148.441 27.565V29.565ZM170.576 43.5556C172.797 48.1147 174.036 53.6409 174.036 59.885H176.036C176.036 53.3795 174.746 47.5471 172.374 42.6795L170.576 43.5556ZM174.036 59.885C174.036 66.0442 172.775 71.5389 170.515 76.0843L172.306 76.9748C174.72 72.1198 176.036 66.3143 176.036 59.885H174.036ZM163.744 84.685C159.62 88.035 154.416 89.935 148.441 89.935V91.935C154.859 91.935 160.512 89.8869 165.005 86.2374L163.744 84.685ZM148.441 89.935C142.475 89.935 137.214 88.0409 133.015 84.6972L131.769 86.2618C136.332 89.8948 142.035 91.935 148.441 91.935V89.935ZM126.096 76.1291C123.758 71.5739 122.441 66.063 122.441 59.885H120.441C120.441 66.3457 121.818 72.175 124.317 77.0425L126.096 76.1291ZM104.541 59.885C104.541 55.1425 105.103 50.6225 106.159 46.3919L102.278 45.423C101.141 49.9802 100.541 54.826 100.541 59.885H104.541ZM109.122 37.8631C112.996 29.3415 119.134 22.5012 126.811 18.0803L124.814 14.614C116.377 19.4726 109.683 26.9641 105.481 36.2078L109.122 37.8631ZM135.01 14.4806C139.152 13.174 143.608 12.475 148.306 12.475V8.475C143.208 8.475 138.346 9.23394 133.807 10.666L135.01 14.4806ZM148.306 12.475C153.038 12.475 157.517 13.1417 161.671 14.4028L162.833 10.5753C158.287 9.19513 153.415 8.475 148.306 8.475V12.475ZM169.928 17.9203C177.628 22.2556 183.748 29.0381 187.561 37.7291L191.224 36.1219C187.077 26.6718 180.379 19.2136 171.89 14.4347L169.928 17.9203ZM190.414 46.3176C191.407 50.5285 191.936 55.0655 191.936 59.885H195.936C195.936 54.7729 195.375 49.9268 194.307 45.399L190.414 46.3176ZM191.936 59.885C191.936 64.6733 191.399 69.1908 190.39 73.3893L194.279 74.3239C195.366 69.8045 195.936 64.9725 195.936 59.885H191.936ZM187.507 81.9297C183.678 90.5318 177.553 97.2825 169.852 101.603L171.809 105.092C180.293 100.332 186.997 92.9126 191.162 83.5564L187.507 81.9297ZM161.621 105.103C157.481 106.359 153.019 107.025 148.306 107.025V111.025C153.397 111.025 158.252 110.305 162.783 108.93L161.621 105.103ZM148.306 107.025C143.635 107.025 139.195 106.326 135.062 105.022L133.857 108.836C138.386 110.266 143.233 111.025 148.306 111.025V107.025ZM126.888 101.438C119.222 97.0381 113.07 90.2387 109.176 81.7936L105.543 83.4686C109.769 92.6329 116.478 100.075 124.897 104.908L126.888 101.438ZM106.183 73.314C105.112 69.0995 104.541 64.6001 104.541 59.885H100.541C100.541 64.9235 101.151 69.7542 102.306 74.2992L106.183 73.314ZM123.441 59.885C123.441 53.7464 124.696 48.3536 126.907 43.9377L123.33 42.1469C120.806 47.1872 119.441 53.2061 119.441 59.885H123.441ZM133.535 35.5994C137.547 32.384 142.612 30.565 148.441 30.565V26.565C141.744 26.565 135.787 28.6685 131.033 32.478L133.535 35.5994ZM148.441 30.565C154.237 30.565 159.243 32.3968 163.191 35.6331L165.727 32.5394C161.031 28.6911 155.12 26.565 148.441 26.565V30.565ZM169.677 43.9936C171.823 48.3985 173.036 53.7716 173.036 59.885H177.036C177.036 53.2489 175.72 47.2633 173.273 42.2415L169.677 43.9936ZM173.036 59.885C173.036 65.9091 171.803 71.2484 169.62 75.6391L173.201 77.4201C175.693 72.4103 177.036 66.4493 177.036 59.885H173.036ZM163.113 83.9088C159.173 87.1091 154.195 88.935 148.441 88.935V92.935C155.081 92.935 160.958 90.8128 165.635 87.0136L163.113 83.9088ZM148.441 88.935C142.695 88.935 137.655 87.1139 133.638 83.915L131.146 87.0441C135.89 90.8217 141.814 92.935 148.441 92.935V88.935ZM126.986 75.6724C124.728 71.2733 123.441 65.9217 123.441 59.885H119.441C119.441 66.487 120.849 72.4756 123.427 77.4992L126.986 75.6724ZM205.835 88.775H204.835V89.775H205.835V88.775ZM205.835 72.71L205.074 72.0615L204.835 72.3418V72.71H205.835ZM257.135 12.5V11.5H256.673L256.374 11.8515L257.135 12.5ZM276.035 12.5H277.035V11.5H276.035V12.5ZM276.035 69.875H275.035V70.875H276.035V69.875ZM290.48 69.875H291.48V68.875H290.48V69.875ZM290.48 88.775V89.775H291.48V88.775H290.48ZM276.035 88.775V87.775H275.035V88.775H276.035ZM276.035 107V108H277.035V107H276.035ZM257.135 107H256.135V108H257.135V107ZM257.135 88.775H258.135V87.775H257.135V88.775ZM231.08 69.875L230.314 69.2322L228.935 70.875H231.08V69.875ZM257.135 69.875V70.875H258.135V69.875H257.135ZM257.135 38.825H258.135V36.0776L256.369 38.1822L257.135 38.825ZM206.835 88.775V82.7506H204.835V88.775H206.835ZM206.835 78.7344V72.71H204.835V78.7344H206.835ZM206.596 73.3585L216.215 62.0692L214.692 60.7721L205.074 72.0615L206.596 73.3585ZM222.627 54.5429L241.865 31.9642L240.342 30.6671L221.105 53.2458L222.627 54.5429ZM248.277 24.4379L257.896 13.1485L256.374 11.8515L246.755 23.1408L248.277 24.4379ZM257.135 13.5H264.222V11.5H257.135V13.5ZM268.947 13.5H276.035V11.5H268.947V13.5ZM275.035 12.5V34.0156H277.035V12.5H275.035ZM275.035 48.3594V69.875H277.035V48.3594H275.035ZM276.035 70.875H281.452V68.875H276.035V70.875ZM285.063 70.875H290.48V68.875H285.063V70.875ZM289.48 69.875V76.9625H291.48V69.875H289.48ZM289.48 81.6875V88.775H291.48V81.6875H289.48ZM290.48 87.775H285.063V89.775H290.48V87.775ZM281.452 87.775H276.035V89.775H281.452V87.775ZM275.035 88.775V95.6094H277.035V88.775H275.035ZM275.035 100.166V107H277.035V100.166H275.035ZM276.035 106H268.947V108H276.035V106ZM264.222 106H257.135V108H264.222V106ZM258.135 107V100.166H256.135V107H258.135ZM258.135 95.6094V88.775H256.135V95.6094H258.135ZM257.135 87.775H237.897V89.775H257.135V87.775ZM225.072 87.775H205.835V89.775H225.072V87.775ZM231.846 70.5178L241.617 58.8741L240.085 57.5884L230.314 69.2322L231.846 70.5178ZM248.13 51.1115L257.901 39.4678L256.369 38.1822L246.598 49.8259L248.13 51.1115ZM256.135 38.825V50.4688H258.135V38.825H256.135ZM256.135 58.2313V69.875H258.135V58.2313H256.135ZM257.135 68.875H247.364V70.875H257.135V68.875ZM240.851 68.875H231.08V70.875H240.851V68.875ZM205.835 88.775H203.835V90.775H205.835V88.775ZM205.835 72.71L204.313 71.4129L203.835 71.9735V72.71H205.835ZM257.135 12.5V10.5H256.211L255.613 11.2029L257.135 12.5ZM276.035 12.5H278.035V10.5H276.035V12.5ZM276.035 69.875H274.035V71.875H276.035V69.875ZM290.48 69.875H292.48V67.875H290.48V69.875ZM290.48 88.775V90.775H292.48V88.775H290.48ZM276.035 88.775V86.775H274.035V88.775H276.035ZM276.035 107V109H278.035V107H276.035ZM257.135 107H255.135V109H257.135V107ZM257.135 88.775H259.135V86.775H257.135V88.775ZM231.08 69.875L229.548 68.5894L226.791 71.875H231.08V69.875ZM257.135 69.875V71.875H259.135V69.875H257.135ZM257.135 38.825H259.135V33.3302L255.603 37.5394L257.135 38.825ZM207.835 88.775V82.7506H203.835V88.775H207.835ZM207.835 78.7344V72.71H203.835V78.7344H207.835ZM207.357 74.0071L216.976 62.7177L213.931 60.1235L204.313 71.4129L207.357 74.0071ZM223.389 55.1915L242.626 32.6127L239.581 30.0185L220.344 52.5973L223.389 55.1915ZM249.039 25.0864L258.657 13.7971L255.613 11.2029L245.994 22.4923L249.039 25.0864ZM257.135 14.5H264.222V10.5H257.135V14.5ZM268.947 14.5H276.035V10.5H268.947V14.5ZM274.035 12.5V34.0156H278.035V12.5H274.035ZM274.035 48.3594V69.875H278.035V48.3594H274.035ZM276.035 71.875H281.452V67.875H276.035V71.875ZM285.063 71.875H290.48V67.875H285.063V71.875ZM288.48 69.875V76.9625H292.48V69.875H288.48ZM288.48 81.6875V88.775H292.48V81.6875H288.48ZM290.48 86.775H285.063V90.775H290.48V86.775ZM281.452 86.775H276.035V90.775H281.452V86.775ZM274.035 88.775V95.6094H278.035V88.775H274.035ZM274.035 100.166V107H278.035V100.166H274.035ZM276.035 105H268.947V109H276.035V105ZM264.222 105H257.135V109H264.222V105ZM259.135 107V100.166H255.135V107H259.135ZM259.135 95.6094V88.775H255.135V95.6094H259.135ZM257.135 86.775H237.897V90.775H257.135V86.775ZM225.072 86.775H205.835V90.775H225.072V86.775ZM232.612 71.1606L242.383 59.5169L239.318 56.9456L229.548 68.5894L232.612 71.1606ZM248.896 51.7544L258.667 40.1106L255.603 37.5394L245.832 49.1831L248.896 51.7544ZM255.135 38.825V50.4688H259.135V38.825H255.135ZM255.135 58.2313V69.875H259.135V58.2313H255.135ZM257.135 67.875H247.364V71.875H257.135V67.875ZM240.851 67.875H231.08V71.875H240.851V67.875Z" fill="#A6A6A6" mask="url(#path-2-outside-1_2001_2)"/>
</svg>
