<svg width="17" height="18" viewBox="0 0 17 18" fill="none" xmlns="http://www.w3.org/2000/svg">
<path d="M1.0625 0C0.475697 0 0 0.474052 0 1.05882C0 1.6436 0.475697 2.11765 1.0625 2.11765H2.35792L2.68258 3.41179C2.68599 3.42675 2.68972 3.44159 2.69375 3.45631L4.13581 9.20458L3.18745 10.1497C1.84878 11.4837 2.79687 13.7647 4.69005 13.7647H13.8124C14.3993 13.7647 14.8749 13.2907 14.8749 12.7059C14.8749 12.1211 14.3993 11.6471 13.8124 11.6471L4.69005 11.6471L5.75255 10.5882H12.75C13.1524 10.5882 13.5203 10.3616 13.7003 10.0029L16.8878 3.64999C17.0525 3.32177 17.0349 2.93197 16.8413 2.61981C16.6477 2.30766 16.3057 2.11765 15.9375 2.11765H4.54832L4.21828 0.802021C4.10003 0.330668 3.67505 0 3.1875 0H1.0625Z" fill="#7DA2B5"/>
<path d="M14.875 16.4118C14.875 17.2889 14.1615 18 13.2812 18C12.401 18 11.6875 17.2889 11.6875 16.4118C11.6875 15.5346 12.401 14.8235 13.2812 14.8235C14.1615 14.8235 14.875 15.5346 14.875 16.4118Z" fill="#7DA2B5"/>
<path d="M4.78125 18C5.66145 18 6.375 17.2889 6.375 16.4118C6.375 15.5346 5.66145 14.8235 4.78125 14.8235C3.90105 14.8235 3.1875 15.5346 3.1875 16.4118C3.1875 17.2889 3.90105 18 4.78125 18Z" fill="#7DA2B5"/>
</svg>
