<svg width="20" height="15" viewBox="0 0 20 15" fill="none" xmlns="http://www.w3.org/2000/svg">
<path d="M10.4583 9.5C11.5628 9.5 12.4583 8.60457 12.4583 7.5C12.4583 6.39543 11.5628 5.5 10.4583 5.5C9.35369 5.5 8.45826 6.39543 8.45826 7.5C8.45826 8.60457 9.35369 9.5 10.4583 9.5Z" fill="#578CA7"/>
<path fill-rule="evenodd" clip-rule="evenodd" d="M0.916016 7.50004C2.19027 3.44291 5.98057 0.5 10.4582 0.5C14.9359 0.5 18.7261 3.44288 20.0004 7.49996C18.7262 11.5571 14.9359 14.5 10.4582 14.5C5.98057 14.5 2.19029 11.5571 0.916016 7.50004ZM14.4583 7.5C14.4583 9.70914 12.6674 11.5 10.4583 11.5C8.24912 11.5 6.45826 9.70914 6.45826 7.5C6.45826 5.29086 8.24912 3.5 10.4583 3.5C12.6674 3.5 14.4583 5.29086 14.4583 7.5Z" fill="#578CA7"/>
</svg>
