<svg width="198" height="33" viewBox="0 0 198 33" fill="none" xmlns="http://www.w3.org/2000/svg">
<path d="M12.9671 7.65766C12.3774 6.57739 11.5754 5.73029 10.5612 5.11636C9.54693 4.50243 8.4118 4.19547 7.15578 4.19547C5.89976 4.19547 4.82949 4.58508 3.94497 5.36429C3.06044 6.14941 2.61818 7.22378 2.61818 8.5874V8.77335C2.61818 10.3908 3.5145 11.8695 5.30713 13.2096C6.07961 13.7704 6.94644 14.3282 7.90762 14.8831C8.8688 15.4321 9.82998 16.0224 10.7912 16.654C11.7523 17.2798 12.6251 17.9468 13.4093 18.6552C14.1936 19.3636 14.8364 20.2313 15.3376 21.2585C15.8329 22.2856 16.0806 23.4131 16.0806 24.641V25.0306C16.0806 27.4686 15.255 29.4078 13.6039 30.8481C11.9469 32.2826 9.90074 32.9998 7.46536 32.9998C4.25749 32.9998 1.76904 31.6775 0 29.0329V26.9521C0.66634 28.416 1.64816 29.6055 2.94546 30.5205C4.24276 31.4296 5.85258 31.8841 7.77494 31.8841C9.6973 31.8841 11.3631 31.2673 12.7725 30.0335C14.1877 28.8056 14.8953 27.1646 14.8953 25.1103V24.8801C14.8953 23.5932 14.5592 22.4185 13.887 21.3559C13.2206 20.2874 12.3892 19.4138 11.3926 18.7349C10.3902 18.0501 9.29927 17.3359 8.11991 16.5921C6.94055 15.8483 5.84963 15.1546 4.84717 14.5112C3.85061 13.8737 3.01622 13.0649 2.34398 12.085C1.67764 11.111 1.34447 10.0455 1.34447 8.88846V8.62282C1.34447 6.82237 1.92236 5.44694 3.07813 4.49653C4.23391 3.54613 5.65799 3.07092 7.35037 3.07092C9.7091 3.07092 11.5813 3.94459 12.9671 5.69192V7.65766Z" fill="#262626"/>
<path d="M24.3164 32.4689V3.57605H34.6653V4.69174H25.5901V20.4088H33.1705V21.5245H25.5901V31.3444H34.6653V32.4689H24.3164Z" fill="#262626"/>
<path d="M58.9893 18.8681L52.8684 32.9648L40.2109 3.57605H41.635L53.063 30.0339L58.4055 17.5222L52.4439 3.57605H53.8326L59.1751 16.2471L64.6768 3.57605H65.7559L59.7589 17.4779L65.2164 30.1579L76.8744 3.57605H77.9181L65.1014 32.9648L58.9893 18.8681Z" fill="#262626"/>
<path d="M85.6934 32.4689V3.57605H86.9582V32.4689H85.6934Z" fill="#262626"/>
<path d="M94.6172 3.57605H109.123V4.69174H102.543V32.4689H101.269V4.69174H94.6172V3.57605Z" fill="#262626"/>
<path d="M137.633 20.3291V3.57605H138.906V32.4689H137.633V21.4448H117.855V32.4689H116.59V3.57605H117.855V20.3291H137.633Z" fill="#262626"/>
<path d="M176.303 3.57605H178.072V32.4689H176.798V5.08135L163.176 33.0002L149.634 5.08135V32.4689H148.484V3.57605H150.333L163.291 30.2287L176.303 3.57605Z" fill="#262626"/>
<path d="M187.65 32.4689V3.57605H197.999V4.69174H188.924V20.4088H196.504V21.5245H188.924V31.3444H197.999V32.4689H187.65Z" fill="#262626"/>
<path d="M53.1562 21.818H51.4225L44.8594 0H46.4073L50.5999 14.6988C50.8771 15.7023 51.1424 16.6705 51.396 17.6031C51.6554 18.5299 51.9061 19.4803 52.1478 20.4544H52.3336C52.6048 19.4803 52.879 18.5299 53.1562 17.6031C53.4274 16.6705 53.7016 15.7023 53.9788 14.6988L58.1714 0H60.082L64.2835 14.6988C64.5547 15.7023 64.826 16.6705 65.0972 17.6031C65.3744 18.5299 65.6486 19.4803 65.9198 20.4544H66.1056C66.3768 19.4803 66.651 18.5299 66.9282 17.6031C67.1994 16.6705 67.4707 15.7023 67.7419 14.6988L71.8461 0H73.3056L66.9282 21.818H65.0088L60.9046 7.57963C60.5685 6.51706 60.2795 5.48106 60.0378 4.47162C59.796 3.46809 59.5071 2.43504 59.1709 1.37248H58.994C58.7169 2.43504 58.4338 3.4858 58.1449 4.52475C57.8559 5.5578 57.5287 6.60561 57.1631 7.66817L53.1562 21.818Z" fill="#262626"/>
</svg>
