<svg width="17" height="18" viewBox="0 0 17 18" fill="none" xmlns="http://www.w3.org/2000/svg">
<path fill-rule="evenodd" clip-rule="evenodd" d="M6.375 2.25C4.02779 2.25 2.125 4.26472 2.125 6.75C2.125 9.23528 4.02779 11.25 6.375 11.25C8.72221 11.25 10.625 9.23528 10.625 6.75C10.625 4.26472 8.72221 2.25 6.375 2.25ZM0 6.75C0 3.02208 2.85418 0 6.375 0C9.89581 0 12.75 3.02208 12.75 6.75C12.75 8.20781 12.3135 9.55768 11.5714 10.6611L16.6888 16.0795C17.1037 16.5188 17.1037 17.2312 16.6888 17.6705C16.2739 18.1098 15.6011 18.1098 15.1862 17.6705L10.0688 12.2521C9.0267 13.0379 7.75182 13.5 6.375 13.5C2.85418 13.5 0 10.4779 0 6.75Z" fill="#7DA2B5"/>
</svg>
