<svg width="25" height="25" viewBox="0 0 25 25" fill="none" xmlns="http://www.w3.org/2000/svg">
<path fill-rule="evenodd" clip-rule="evenodd" d="M4 0C1.79086 0 0 1.79086 0 4V21C0 23.2091 1.79086 25 4 25H21C23.2091 25 25 23.2091 25 21V4C25 1.79086 23.2091 0 21 0H4ZM4.89683 11.1583L18.7484 5.64457C19.3804 5.34941 19.9914 5.80183 19.75 6.80102L17.3914 18.2752C17.2265 19.0913 16.7507 19.2849 16.0882 18.9083L12.4953 16.1688L10.7679 17.9026C10.7615 17.9091 10.7551 17.9154 10.7487 17.9218C10.556 18.1142 10.3963 18.2736 10.0484 18.2736L10.2937 14.4897L10.2921 14.4889H10.2937L16.9601 8.27844C17.2523 8.0107 16.8968 7.87924 16.5078 8.1236L8.27964 13.4825L4.72339 12.3373C3.95698 12.0946 3.95152 11.5502 4.89683 11.1583Z" fill="#7DA2B5"/>
</svg>
