<svg width="25" height="25" viewBox="0 0 25 25" fill="none" xmlns="http://www.w3.org/2000/svg">
<g clip-path="url(#clip0_176_499)">
<path d="M16.3355 0H8.66133C1.6582 0 -0.00195312 1.66016 -0.00195312 8.66328V16.3375C-0.00195312 23.3406 1.6582 25.0008 8.66133 25.0008H16.3355C23.3387 25.0008 24.9988 23.3406 24.9988 16.3375V8.66328C24.9988 1.66016 23.3223 0 16.3355 0ZM20.1809 17.8344H18.366C17.6785 17.8344 17.4668 17.2891 16.2301 16.0359C15.1559 14.9945 14.6801 14.8563 14.4152 14.8563C14.041 14.8563 13.9348 14.9617 13.9348 15.475V17.1148C13.9348 17.5547 13.7965 17.8188 12.6324 17.8188C10.7074 17.8188 8.57148 16.6547 7.07383 14.4859C4.81523 11.3078 4.19727 8.92735 4.19727 8.43516C4.19727 8.17031 4.30273 7.92266 4.81133 7.92266H6.63008C7.09023 7.92266 7.26523 8.13438 7.44414 8.62656C8.34336 11.2227 9.84101 13.4969 10.459 13.4969C10.6871 13.4969 10.7926 13.3914 10.7926 12.8094V10.1281C10.723 8.89141 10.0723 8.78516 10.0723 8.3461C10.0723 8.13438 10.2473 7.92266 10.5277 7.92266H13.3879C13.7746 7.92266 13.9168 8.13438 13.9168 8.58984V12.207C13.9168 12.5977 14.0918 12.7359 14.1973 12.7359C14.4254 12.7359 14.6207 12.5977 15.0434 12.1742C16.3496 10.7094 17.2855 8.45078 17.2855 8.45078C17.4074 8.18594 17.6191 7.93828 18.0793 7.93828H19.898C20.4434 7.93828 20.5652 8.21875 20.4434 8.60938C20.2152 9.66719 17.9895 12.8086 17.9895 12.8086C17.798 13.1258 17.7246 13.2641 17.9895 13.618C18.1848 13.8828 18.8199 14.432 19.2426 14.9242C20.0199 15.807 20.6176 16.5477 20.777 17.0602C20.9559 17.5688 20.6918 17.8336 20.1785 17.8336L20.1809 17.8344Z" fill="#7DA2B5"/>
</g>
<defs>
<clipPath id="clip0_176_499">
<rect width="25" height="25" fill="white"/>
</clipPath>
</defs>
</svg>
